<mxfile host="app.diagrams.net" modified="2023-08-31T14:58:25.193Z" agent="Mozilla/5.0 (Windows NT 10.0; Win64; x64) AppleWebKit/537.36 (KHTML, like Gecko) Chrome/116.0.0.0 Safari/537.36" version="21.6.8" etag="aFpJPCJxwW7PssDPUpwP" type="github">
  <diagram name="Page-1" id="eQ00rJ7N1yBAPdxL4M-O">
    <mxGraphModel>
      <root>
        <mxCell id="0" />
        <mxCell id="1" parent="0" />
      </root>
    </mxGraphModel>
  </diagram>
</mxfile>
